<svg width="948" height="739" viewBox="0 0 948 739" fill="none" xmlns="http://www.w3.org/2000/svg">
<path d="M653.5 15.8022C738.7 -28.1978 870.333 72.8022 925.5 128.802V763.802L0 752.302C30.3333 716.469 98 637.102 126 606.302C161 567.802 280 631.302 360 619.802C440 608.302 547 70.8022 653.5 15.8022Z" fill="black"/>
<path d="M675.5 10.8022C760.7 -33.1978 892.333 67.8022 947.5 123.802V758.802L22 747.302C52.3333 711.469 120 632.102 148 601.302C183 562.802 302 626.302 382 614.802C462 603.302 569 65.8022 675.5 10.8022Z" fill="#FFCD00"/>
</svg>
